<svg width="46" height="62" viewBox="0 0 46 62" fill="none" xmlns="http://www.w3.org/2000/svg">
<path d="M10.6624 1.00004C7.36398 1.00004 4.91928 2.24179 3.32828 4.72529C1.7761 7.2476 1 10.5654 1 14.6787C1 17.1622 1.27163 19.8591 1.8149 22.7695C2.59099 26.9604 3.85215 31.0737 5.59836 35.1094C7.34458 39.1451 9.30421 42.5211 11.4773 45.2374L15.901 42.2107C13.7668 39.4555 11.9429 36.3124 10.4296 32.7811C8.91617 29.2887 7.81023 25.7963 7.11175 22.3038C6.56848 19.5099 6.29685 17.0264 6.29685 14.8533C6.29685 12.331 6.64609 10.2938 7.34458 8.74158C8.04306 7.1894 9.03258 6.4133 10.3131 6.4133C11.4773 6.4133 12.7966 6.95657 14.2712 8.0431C15.7846 9.12963 17.0652 10.3132 18.1129 11.5937C17.5308 13.3399 17.0652 15.319 16.7159 17.5309C16.4055 19.7427 16.2503 22.0128 16.2503 24.3411C16.2503 26.2425 16.3667 28.0857 16.5995 29.8708C17.1428 33.7124 18.1711 36.8168 19.6845 39.1839C21.2367 41.551 23.3321 42.7345 25.9709 42.7345C26.2425 42.7345 26.6887 42.6957 27.3096 42.6181C31.3453 42.0361 33.3632 39.3197 33.3632 34.4691C33.3632 31.714 32.7423 28.5708 31.5005 25.0396C30.608 22.4785 29.5021 19.9368 28.1827 17.4144C26.9022 14.9309 25.5828 12.7385 24.2246 10.837C25.6992 8.23712 27.5618 6.93716 29.8125 6.93716C32.4124 6.93716 34.5661 8.70278 36.2735 12.234C37.9809 15.7652 39.048 20.0532 39.4749 25.0978C39.6301 26.4948 39.7077 28.0663 39.7077 29.8126C39.7077 32.6065 39.4555 35.1676 38.951 37.4959C38.4466 39.863 37.7287 41.7062 36.7974 43.0256L41.2211 45.9941C42.5405 44.0927 43.53 41.745 44.1897 38.9511C44.8882 36.1571 45.2374 33.1304 45.2374 29.8708C45.2374 27.6589 45.0434 25.1948 44.6553 22.4785C44.0733 18.6756 43.1226 15.1832 41.8032 12.0012C40.4838 8.858 38.7958 6.33569 36.7392 4.43426C34.7213 2.53283 32.4318 1.58211 29.8707 1.58211C28.3573 1.58211 26.7858 1.95075 25.156 2.68804C23.5262 3.42533 22.0322 4.68649 20.674 6.4715C17.104 2.82386 13.7668 1.00004 10.6624 1.00004ZM21.8381 28.5902C21.7217 27.2708 21.6635 25.9515 21.6635 24.6321C21.6635 21.7606 21.8381 19.3547 22.1874 17.4144C22.8859 18.6562 23.7008 20.2666 24.6321 22.2456C25.5634 24.2635 26.3589 26.2425 27.0186 28.1828C27.9499 30.8603 28.4156 32.9557 28.4156 34.4691C28.4156 35.3616 28.2409 36.0601 27.8917 36.5646C27.5424 37.069 26.9992 37.3213 26.2619 37.3213C23.8948 37.3213 22.4202 34.4109 21.8381 28.5902Z" fill="#212121" stroke="#212121" stroke-width="0.459469"/>
<rect x="12.9988" y="50.9303" width="9.59899" height="10.6827" fill="#212121" stroke="#212121" stroke-width="0.774112"/>
<rect x="30.0291" y="50.9303" width="9.59899" height="10.6827" fill="#212121" stroke="#212121" stroke-width="0.774112"/>
</svg>
